<?xml version="1.0" standalone="no"?>
<!DOCTYPE svg PUBLIC "-//W3C//DTD SVG 20010904//EN"
 "http://www.w3.org/TR/2001/REC-SVG-20010904/DTD/svg10.dtd">
<svg version="1.0" xmlns="http://www.w3.org/2000/svg"
 width="260.000000pt" height="260.000000pt" viewBox="0 0 260.000000 260.000000"
 preserveAspectRatio="xMidYMid meet">
<metadata>
Created by potrace 1.14, written by Peter Selinger 2001-2017
</metadata>
<g transform="translate(0.000000,260.000000) scale(0.100000,-0.100000)"
fill="#000000" stroke="none">
<path d="M0 1300 l0 -1300 1300 0 1300 0 0 1300 0 1300 -1300 0 -1300 0 0
-1300z m1592 882 c185 -157 243 -358 187 -648 -49 -257 -8 -364 140 -366 126
-1 218 101 265 295 l23 92 18 -73 c77 -315 0 -631 -214 -876 -183 -210 -425
-318 -711 -317 -309 0 -576 135 -760 381 -193 260 -241 594 -130 903 30 82
114 231 144 256 13 11 14 8 5 -21 -20 -70 -22 -190 -5 -257 28 -109 83 -161
170 -161 149 0 223 129 165 288 -30 82 -37 221 -14 298 18 65 59 135 103 177
l28 27 0 -88 c-1 -73 3 -96 25 -142 94 -200 337 -214 425 -25 42 89 31 218
-31 358 -10 24 94 -39 167 -101z"/>
</g>
</svg>
